<svg xmlns="http://www.w3.org/2000/svg" viewBox="0 0 100 100" width="100" height="100">
  <!-- Фон аватара -->
  <circle cx="50" cy="50" r="50" fill="#5865F2" />
  
  <!-- Силуэт пользователя -->
  <circle cx="50" cy="40" r="20" fill="#FFFFFF" />
  <path d="M50 65 C30 65, 15 80, 15 100 L85 100 C85 80, 70 65, 50 65 Z" fill="#FFFFFF" />
  
  <!-- Наушники (геймер) -->
  <path d="M30 40 C20 40, 20 50, 20 55 L25 55 L25 45 C25 43, 27 40, 30 40 Z" fill="#5865F2" />
  <path d="M70 40 C80 40, 80 50, 80 55 L75 55 L75 45 C75 43, 73 40, 70 40 Z" fill="#5865F2" />
  <path d="M30 40 L70 40" stroke="#5865F2" stroke-width="5" />
  
  <!-- Простое выражение лица -->
  <circle cx="40" cy="45" r="3" fill="#5865F2" />
  <circle cx="60" cy="45" r="3" fill="#5865F2" />
  <path d="M40 55 C45 60, 55 60, 60 55" stroke="#5865F2" stroke-width="2" fill="none" />
</svg> 