<svg xmlns="http://www.w3.org/2000/svg" viewBox="0 0 32 32" width="32" height="32">
  <!-- Фон фавикона -->
  <circle cx="16" cy="16" r="16" fill="#5865F2" />
  
  <!-- Буква O -->
  <path d="M12 10 C9 12, 9 20, 12 22 C14 23, 16 23, 18 22 C21 20, 21 12, 18 10 C16 9, 14 9, 12 10 Z" fill="white" />
  <path d="M14 13 C12 14, 12 18, 14 19 C15 19, 17 19, 18 19 C20 18, 20 14, 18 13 C17 13, 15 13, 14 13 Z" fill="#5865F2" />
  
  <!-- Буква T (упрощенная) -->
  <rect x="22" y="10" width="6" height="2" fill="white" />
  <rect x="24" y="10" width="2" height="12" fill="white" />
</svg> 