<svg xmlns="http://www.w3.org/2000/svg" viewBox="0 0 100 100" width="100" height="100">
  <!-- Фон логотипа -->
  <circle cx="50" cy="50" r="45" fill="#5865F2" />
  
  <!-- Буква O -->
  <path d="M35 30 C25 35, 25 65, 35 70 C40 73, 45 73, 50 70 C55 65, 55 35, 50 30 C45 27, 40 27, 35 30 Z" fill="white" />
  <path d="M40 40 C36 43, 36 57, 40 60 C43 62, 47 62, 50 60 C53 57, 53 43, 50 40 C47 38, 43 38, 40 40 Z" fill="#5865F2" />
  
  <!-- Буква T -->
  <rect x="55" y="30" width="20" height="5" fill="white" />
  <rect x="62.5" y="30" width="5" height="40" fill="white" />
</svg> 